Coordinates
version=1
nRows=37
nColumns=38
inDegrees=no

Units are S.I. units (second, meters, Newtons, ...)
If the header above contains a line with 'inDegrees', this indicates whether rotational values are in degrees (yes) or radians (no).

endheader
time	pelvis_tilt	pelvis_list	pelvis_rotation	pelvis_tx	pelvis_ty	pelvis_tz	hip_flexion_r	hip_adduction_r	hip_rotation_r	knee_angle_r	ankle_angle_r	subtalar_angle_r	mtp_angle_r	hip_flexion_l	hip_adduction_l	hip_rotation_l	knee_angle_l	ankle_angle_l	subtalar_angle_l	mtp_angle_l	lumbar_extension	lumbar_bending	lumbar_rotation	arm_flex_r	arm_add_r	arm_rot_r	elbow_flex_r	pro_sup_r	wrist_flex_r	wrist_dev_r	arm_flex_l	arm_add_l	arm_rot_l	elbow_flex_l	pro_sup_l	wrist_flex_l	wrist_dev_l
0.83	0.997612	1.44221	-2.62114	0.766391	0.300604	1.03873	-0.124807	-0.158906	-0.0393274	0.890301	-0.284553	0	0	0.193441	0.131237	-0.261525	0.404256	-0.207211	0	0	-0.119949	-0.110798	-0.0459115	-0.246771	-0.173577	-0.0838552	0.389428	0.31188	0	0	-0.26338	-0.485031	0.945197	0.505801	0.783027	0	0
0.84	1.00747	1.4397	-2.62904	0.767893	0.289756	1.03997	-0.10981	-0.160341	-0.0230294	0.922842	-0.310579	0	0	0.180461	0.134819	-0.267486	0.402823	-0.204247	0	0	-0.119037	-0.115914	-0.0491127	-0.248415	-0.172794	-0.0792553	0.389682	0.312922	0	0	-0.254317	-0.495891	0.951884	0.509554	0.782747	0	0
0.85	1.00868	1.43651	-2.62999	0.769229	0.279237	1.0413	-0.0928566	-0.162234	-0.00795115	0.958266	-0.337459	0	0	0.165597	0.138576	-0.275466	0.399476	-0.201276	0	0	-0.120988	-0.121113	-0.0522633	-0.24827	-0.172464	-0.0731452	0.390869	0.314894	0	0	-0.245609	-0.508022	0.950938	0.517759	0.776185	0	0
0.86	1.0043	1.433	-2.62711	0.770428	0.269017	1.04264	-0.0745437	-0.164016	0.00680918	0.994346	-0.359996	0	0	0.149386	0.142684	-0.28403	0.394812	-0.197893	0	0	-0.124411	-0.126181	-0.0539547	-0.247324	-0.172366	-0.0679577	0.392528	0.314913	0	0	-0.236029	-0.520171	0.949115	0.526005	0.773035	0	0
0.87	0.993088	1.42943	-2.61853	0.771527	0.258983	1.04401	-0.0561126	-0.164969	0.0208679	1.02913	-0.368644	0	0	0.13168	0.146838	-0.291949	0.388884	-0.194381	0	0	-0.129057	-0.130562	-0.0542281	-0.246588	-0.172671	-0.0635443	0.395119	0.313364	0	0	-0.225329	-0.531732	0.94731	0.532979	0.776846	0	0
0.88	0.97555	1.42573	-2.60254	0.772601	0.249013	1.04541	-0.0390212	-0.165091	0.0318806	1.06158	-0.356539	0	0	0.112397	0.151163	-0.296512	0.381543	-0.191217	0	0	-0.134959	-0.13427	-0.0552227	-0.246361	-0.17317	-0.0581123	0.398838	0.311547	0	0	-0.214375	-0.542981	0.943942	0.538698	0.791111	0	0
0.89	0.949039	1.42232	-2.57635	0.773652	0.239276	1.04689	-0.0231155	-0.163749	0.0401083	1.09164	-0.329287	0	0	0.0916003	0.154539	-0.299736	0.372381	-0.189467	0	0	-0.143281	-0.13671	-0.0585012	-0.245066	-0.173903	-0.0507921	0.403019	0.311485	0	0	-0.203889	-0.554772	0.93512	0.546405	0.804043	0	0
0.9	0.919456	1.42015	-2.54697	0.774663	0.229686	1.04837	-0.00656556	-0.160557	0.0472847	1.11885	-0.296994	0	0	0.071092	0.156326	-0.301649	0.362578	-0.188526	0	0	-0.151733	-0.137469	-0.062599	-0.243093	-0.175178	-0.0415121	0.406858	0.312186	0	0	-0.194003	-0.565842	0.922082	0.554001	0.817739	0	0
0.91	0.891595	1.41983	-2.5189	0.775687	0.220218	1.04979	0.01218	-0.155889	0.052922	1.14332	-0.269618	0	0	0.0520864	0.156276	-0.301196	0.353208	-0.187356	0	0	-0.158424	-0.13632	-0.0663897	-0.241264	-0.176224	-0.0352565	0.409639	0.310535	0	0	-0.182527	-0.576252	0.912787	0.559917	0.830639	0	0
0.92	0.866597	1.42077	-2.49323	0.776733	0.210897	1.05111	0.0327337	-0.150706	0.0564497	1.16451	-0.245142	0	0	0.0347947	0.155226	-0.299913	0.344284	-0.186128	0	0	-0.163759	-0.133917	-0.0703665	-0.23887	-0.177044	-0.0309485	0.410866	0.306346	0	0	-0.170479	-0.586351	0.903957	0.565498	0.843179	0	0
0.93	0.839868	1.42252	-2.46532	0.777791	0.201682	1.05241	0.0534601	-0.144882	0.0580456	1.1814	-0.223599	0	0	0.0182062	0.153209	-0.298436	0.335331	-0.185233	0	0	-0.168586	-0.13028	-0.0746248	-0.236256	-0.178103	-0.0253069	0.41177	0.303719	0	0	-0.157704	-0.596267	0.89618	0.570819	0.853949	0	0
0.94	0.811621	1.42529	-2.43551	0.778869	0.192579	1.05366	0.0746952	-0.138281	0.0577526	1.19462	-0.205075	0	0	0.00259863	0.150071	-0.297486	0.326589	-0.184412	0	0	-0.172473	-0.125376	-0.0786106	-0.233927	-0.179399	-0.0186926	0.412937	0.304141	0	0	-0.143436	-0.605995	0.891916	0.575358	0.86226	0	0
0.95	0.781887	1.42898	-2.40395	0.779973	0.183578	1.05483	0.0964917	-0.131029	0.0556508	1.20408	-0.187528	0	0	-0.0118844	0.145908	-0.296967	0.318714	-0.183275	0	0	-0.175574	-0.119327	-0.0824285	-0.23181	-0.181026	-0.0112636	0.414568	0.306742	0	0	-0.128439	-0.615269	0.888629	0.579393	0.870264	0	0
0.96	0.750433	1.43334	-2.37056	0.781087	0.174665	1.05591	0.118724	-0.123283	0.0519897	1.20984	-0.172166	0	0	-0.0252574	0.141041	-0.297357	0.311606	-0.181931	0	0	-0.178044	-0.112311	-0.0860834	-0.229713	-0.18241	-0.00614732	0.415984	0.307577	0	0	-0.113197	-0.62417	0.88521	0.583577	0.877441	0	0
0.97	0.715622	1.43787	-2.33361	0.782157	0.165885	1.05691	0.140738	-0.115049	0.0473352	1.21142	-0.161063	0	0	-0.0379653	0.135619	-0.298171	0.305288	-0.180335	0	0	-0.180462	-0.104599	-0.0895375	-0.227683	-0.183396	-0.00337241	0.417517	0.307021	0	0	-0.0973521	-0.633267	0.88257	0.588517	0.882387	0	0
0.98	0.677365	1.44218	-2.29307	0.783194	0.15719	1.05784	0.161936	-0.106687	0.0416029	1.20863	-0.152493	0	0	-0.0503562	0.129893	-0.299131	0.299806	-0.178744	0	0	-0.183107	-0.0966686	-0.0928111	-0.225697	-0.184154	-0.00186764	0.419412	0.305847	0	0	-0.0812814	-0.642382	0.879752	0.593987	0.888262	0	0
0.99	0.646161	1.44678	-2.25993	0.784265	0.148573	1.05853	0.18421	-0.0992647	0.034724	1.20288	-0.145092	0	0	-0.061148	0.124885	-0.299894	0.294723	-0.17735	0	0	-0.184467	-0.089175	-0.0957847	-0.223827	-0.184959	-0.00147879	0.421664	0.304653	0	0	-0.0654507	-0.651288	0.876227	0.600062	0.894544	0	0
1	0.617611	1.45139	-2.22961	0.785353	0.13998	1.05906	0.206214	-0.0921968	0.0271568	1.19396	-0.135588	0	0	-0.0713047	0.120476	-0.300234	0.289152	-0.176189	0	0	-0.185294	-0.0818922	-0.0986693	-0.222147	-0.186249	-0.000208327	0.424843	0.30591	0	0	-0.0499303	-0.660404	0.871868	0.607535	0.899673	0	0
1.01	0.592178	1.45604	-2.20326	0.786354	0.131255	1.05942	0.227501	-0.0850935	0.0206424	1.18108	-0.124104	0	0	-0.0810711	0.11651	-0.301287	0.283347	-0.174977	0	0	-0.184989	-0.0750921	-0.100818	-0.220753	-0.187759	0.00162636	0.428292	0.309591	0	0	-0.0348366	-0.6693	0.867969	0.615183	0.905403	0	0
1.02	0.563938	1.46009	-2.17382	0.787349	0.122561	1.05972	0.247338	-0.0781504	0.014235	1.16468	-0.11367	0	0	-0.0910371	0.112726	-0.301428	0.278351	-0.173319	0	0	-0.185284	-0.0685119	-0.102918	-0.219481	-0.188827	0.00125193	0.432152	0.313332	0	0	-0.0198725	-0.678415	0.863766	0.623588	0.917646	0	0
1.03	0.532411	1.46342	-2.14083	0.788332	0.113893	1.05995	0.265467	-0.0713954	0.00813674	1.14479	-0.106699	0	0	-0.101282	0.10916	-0.301127	0.27412	-0.171351	0	0	-0.186416	-0.062056	-0.105136	-0.218162	-0.189604	-0.00115121	0.436495	0.316337	0	0	-0.00529233	-0.687745	0.857794	0.633323	0.930476	0	0
1.04	0.501105	1.46649	-2.10842	0.789256	0.10522	1.06007	0.282463	-0.0646953	0.0029219	1.12177	-0.100942	0	0	-0.111282	0.10595	-0.301076	0.27052	-0.169024	0	0	-0.187572	-0.0558733	-0.10711	-0.216635	-0.190178	-0.00457108	0.440952	0.319363	0	0	0.0085915	-0.696937	0.849933	0.643833	0.942863	0	0
1.05	0.471248	1.46958	-2.07799	0.790107	0.0965331	1.06009	0.298421	-0.0580343	-0.00111528	1.09574	-0.0952265	0	0	-0.120791	0.103014	-0.301184	0.267504	-0.166467	0	0	-0.18836	-0.0500265	-0.108752	-0.214814	-0.19091	-0.00711767	0.445483	0.324177	0	0	0.021866	-0.706022	0.841576	0.654741	0.955326	0	0
1.06	0.443404	1.47289	-2.05003	0.790882	0.0878399	1.05998	0.313335	-0.0514138	-0.00395811	1.0667	-0.0889998	0	0	-0.129556	0.100258	-0.301577	0.264929	-0.163756	0	0	-0.188615	-0.0445199	-0.110083	-0.212719	-0.191526	-0.010042	0.449786	0.32913	0	0	0.0345715	-0.715121	0.833265	0.666157	0.968214	0	0
1.07	0.416974	1.4763	-2.02382	0.791535	0.0791481	1.05974	0.32698	-0.0448883	-0.00576967	1.03491	-0.0837187	0	0	-0.137827	0.0975236	-0.301994	0.26261	-0.160895	0	0	-0.188595	-0.0394843	-0.111084	-0.210433	-0.192112	-0.0122113	0.454197	0.335618	0	0	0.0469073	-0.724452	0.825303	0.678168	0.981214	0	0
1.08	0.392987	1.47985	-2.00051	0.792052	0.0704493	1.05935	0.339453	-0.0387385	-0.00709973	1.00002	-0.0789148	0	0	-0.145576	0.0949106	-0.30278	0.260472	-0.157737	0	0	-0.188142	-0.034972	-0.11167	-0.207923	-0.192387	-0.0152495	0.458326	0.341538	0	0	0.0584409	-0.73342	0.816117	0.68999	0.994129	0	0
1.09	0.373924	1.4837	-1.98248	0.792455	0.0617002	1.05879	0.351065	-0.0332868	-0.00881305	0.962201	-0.0748517	0	0	-0.152717	0.0925252	-0.303893	0.258522	-0.15442	0	0	-0.186779	-0.0310899	-0.111899	-0.205458	-0.192594	-0.0182472	0.462178	0.346111	0	0	0.0699006	-0.742095	0.808416	0.701019	1.00463	0	0
1.1	0.359448	1.48757	-1.96926	0.792784	0.0528909	1.05808	0.361417	-0.0286506	-0.011951	0.921498	-0.0703931	0	0	-0.159626	0.0905011	-0.305205	0.256806	-0.151062	0	0	-0.185122	-0.027759	-0.112042	-0.203244	-0.192672	-0.0218098	0.466402	0.350331	0	0	0.0799949	-0.750412	0.798915	0.712259	1.01498	0	0
1.11	0.34913	1.49156	-1.96023	0.793058	0.043993	1.05724	0.370862	-0.024683	-0.0168904	0.87851	-0.0674207	0	0	-0.166107	0.0888492	-0.306382	0.255822	-0.147377	0	0	-0.183091	-0.0249453	-0.11224	-0.201324	-0.192566	-0.025841	0.470823	0.353918	0	0	0.0886016	-0.758476	0.787539	0.724058	1.02511	0	0
1.12	0.348177	1.49577	-1.96012	0.793358	0.0350009	1.05624	0.379984	-0.021883	-0.0245853	0.833452	-0.0662372	0	0	-0.172107	0.0878389	-0.307386	0.254926	-0.143705	0	0	-0.18041	-0.0227422	-0.113008	-0.199725	-0.192433	-0.0300518	0.475409	0.356898	0	0	0.0961009	-0.766072	0.775437	0.735706	1.03526	0	0
1.13	0.357974	1.50023	-1.97032	0.793686	0.0259193	1.05509	0.389054	-0.0201393	-0.0352739	0.786819	-0.0668936	0	0	-0.177621	0.0873963	-0.30833	0.254171	-0.139732	0	0	-0.177005	-0.0210199	-0.11423	-0.198538	-0.192555	-0.0333912	0.480486	0.360453	0	0	0.103354	-0.773148	0.764448	0.74652	1.046	0	0
1.14	0.37738	1.50468	-1.9897	0.794	0.0167464	1.05378	0.397839	-0.0191141	-0.0488562	0.739432	-0.0692689	0	0	-0.183034	0.0873486	-0.309277	0.253571	-0.135454	0	0	-0.173294	-0.0198278	-0.115783	-0.197711	-0.192382	-0.0375675	0.485722	0.362688	0	0	0.110261	-0.779823	0.753751	0.756887	1.05724	0	0
1.15	0.402255	1.50879	-2.01411	0.794314	0.00747634	1.05238	0.405993	-0.0185457	-0.0651341	0.692374	-0.0725093	0	0	-0.188684	0.0875682	-0.310503	0.252954	-0.131363	0	0	-0.169796	-0.0188436	-0.117739	-0.197424	-0.192224	-0.0422095	0.491846	0.364449	0	0	0.116891	-0.786248	0.744017	0.767016	1.06838	0	0
1.16	0.430258	1.51236	-2.04112	0.794638	-0.00188249	1.05094	0.413258	-0.0182871	-0.0835661	0.646523	-0.0765648	0	0	-0.194835	0.0877907	-0.312406	0.252808	-0.127349	0	0	-0.1668	-0.0178926	-0.119903	-0.197489	-0.192344	-0.045879	0.498596	0.367469	0	0	0.123728	-0.792186	0.735653	0.776607	1.07884	0	0
1.17	0.467677	1.51572	-2.07688	0.795009	-0.0113154	1.04943	0.419932	-0.0186241	-0.10298	0.602196	-0.0813395	0	0	-0.200865	0.0880364	-0.314972	0.253348	-0.12363	0	0	-0.163812	-0.0171027	-0.122451	-0.197701	-0.192497	-0.0492547	0.505362	0.370694	0	0	0.131054	-0.797668	0.729263	0.785352	1.08949	0	0
1.18	0.510603	1.51878	-2.11783	0.795358	-0.020842	1.04787	0.425547	-0.0190734	-0.12242	0.559466	-0.0861651	0	0	-0.207087	0.0882279	-0.317155	0.254157	-0.120195	0	0	-0.16104	-0.0163237	-0.125099	-0.197836	-0.192224	-0.0540866	0.511562	0.371672	0	0	0.13821	-0.802366	0.723523	0.793184	1.09948	0	0
1.19	0.557248	1.52143	-2.16229	0.795665	-0.0304531	1.04626	0.430155	-0.0194974	-0.141337	0.519241	-0.0895573	0	0	-0.213637	0.0882894	-0.318356	0.254947	-0.117016	0	0	-0.158594	-0.0155466	-0.12759	-0.198121	-0.192116	-0.0583069	0.517934	0.373156	0	0	0.145436	-0.806378	0.718864	0.800191	1.10842	0	0
